<svg xmlns="http://www.w3.org/2000/svg" width="230" height="130" stroke-linecap="round" fill="none" stroke="black">
    <path d="M40 10h120v110h-120v-110" stroke="black" />

    <!--source -->
    <path d="m80 40v30m21 0h-42m31.5 5.25h-21m10.5 0v20M98.75 59.5h-8.25m3.75 3.75v-8.25" stroke="black" />
    <text x="55" y="85" font-size="10" fill="black" stroke="black" stroke-width="0.25">E</text>
    <text x="62" y="88" font-size="5" fill="black" stroke="black" stroke-width="0.25">Th</text>

    <!--resistor rth-->
    <path d="M120 10h20" stroke="black" />
    <text x="118" y="24" font-size="10" fill="black" stroke="black" stroke-width="0.25">R</text>
    <text x="125" y="28" font-size="5" fill="black" stroke="black" stroke-width="0.25">Th</text>
    <path d=" m90 40h10.5l3.5 7 7-14 7 14 7-14 7 14 7-14 3.5 7h10.5" />

    <path d="m80 40h10" stroke="black" />
    <path d="m150 40h40" stroke="black" />
    <path d="m80 95h110" stroke="black" />

    <text x="192" y="35" font-size="10" fill="black" stroke="black" stroke-width="0.25">A</text>

    <text x="192" y="110" font-size="10" fill="black" stroke="black" stroke-width="0.25">B</text>
</svg>