<svg xmlns="http://www.w3.org/2000/svg" width="275" height="130" stroke-linecap="round" fill="none" stroke="black">
    <!--source e1-->
    <path d="M40 10v40" stroke="black" />
    <path d="m40 50v10.5m21 0h-42m31.5 5.25h-21m10.5 0v26.25m18.75-42h-8.25m3.75 3.75v-8.25" stroke="black" />
    <text x="70" y="65" font-size="10" fill="black" stroke="black" stroke-width="0.25">E</text>
    <text x="77" y="70" font-size="5" fill="black" stroke="black" stroke-width="0.25">Th</text>
    <path d="M40 80v40" stroke="black" />
    <path d="M40 120h200" stroke="black" />


    <!--resistor r-->
    <path d="M40 10h20" stroke="black" />
    <text x="90" y="30" font-size="10" fill="black" stroke="black" stroke-width="0.25">R</text>
    <text x="98" y="33" font-size="5" fill="black" stroke="black" stroke-width="0.25">Th</text>
    <path d=" m60 10h10.5l3.5 7 7-14 7 14 7-14 7 14 7-14 3.5 7h10.5" />
    <path d="M120 10h20" stroke="black" />

    <!--resistor r1-->
    <path d="m140 10h100v30" stroke="black" />
    <text x="220" y="80" font-size="10" fill="black" stroke="black" stroke-width="0.25">R</text>
    <text x="228" y="82" font-size="5" fill="black" stroke="black" stroke-width="0.35">1</text>
    <path d="m240 100v-10.5l7-3.5-14-7 14-7-14-7 14-7-14-7 7-3.5v-10.5" />
    <path d="m240 100v20" stroke="black" />

    <!-- voltage r1-->
    <path d="m263 45-4.5-7.5-4.5 7.5zm-4.5 -7.5v55" fill="green" stroke="green" />
    <text x="250" y="103" font-size="10" fill="green" stroke="green" stroke-width="0.25">U</text>
    <text x="258" y="105" font-size="5" fill="green" stroke="green" stroke-width="0.35">1</text>

    <path d="m190 5v10" stroke="black" />
    <text x="190" y="28" font-size="10" fill="black" stroke="black" stroke-width="0.25">A</text>

    <path d="m190 115v10" stroke="black" />
    <text x="190" y="108" font-size="10" fill="black" stroke="black" stroke-width="0.25">B</text>
</svg>