<svg xmlns="http://www.w3.org/2000/svg" width="275" height="130" stroke-linecap="round" fill="none" stroke="black">
    <!--source e1-->
    <path d="M40 10v40" stroke="black" />
    <path d="m40 50v10.5m21 0h-42m31.5 5.25h-21m10.5 0v26.25m18.75-42h-8.25m3.75 3.75v-8.25" stroke="black" />
    <text x="20" y="50" font-size="10" fill="black" stroke="black" stroke-width="0.25">E</text>
    <path d="M40 80v40" stroke="black" />
    <path d="M40 120h150" stroke="black" />



    <!--resistor r-->
    <path d="M40 10h20" stroke="black" />
    <text x="90" y="30" font-size="10" fill="black" stroke="black" stroke-width="0.25">R</text>
    <path d=" m60 10h10.5l3.5 7 7-14 7 14 7-14 7 14 7-14 3.5 7h10.5" />
    <path d="m140 10v30" stroke="black" />


    <!--resistor r-->
    <path d="M120 10h20" stroke="black" />
    <text x="120" y="80" font-size="10" fill="black" stroke="black" stroke-width="0.25">R</text>
    <path d="m140 100v-10.5l7-3.5-14-7 14-7-14-7 14-7-14-7 7-3.5v-10.5" />
    <path d="m140 100v20" stroke="black" />


    <!--resistor r1-->
    <path d="m140 10h50" stroke="black" />

    <!--current-->
    <path d="m190 10v110" stroke="black" />
    <path d="m193 50-3 5-3-5z" fill="red" stroke="red" />
    <text x="175" y="60" font-size="10" fill="red" stroke="red" stroke-width="0.25">I</text>
    <text x="178" y="65" font-size="5" fill="red" stroke="red" stroke-width="0.25">AB</text>


    <path d="m190 5v10" stroke="black" />
    <text x="195" y="28" font-size="10" fill="black" stroke="black" stroke-width="0.25">A</text>

    <path d="m190 115v10" stroke="black" />
    <text x="195" y="108" font-size="10" fill="black" stroke="black" stroke-width="0.25">B</text>
</svg>