<?xml version="1.0" encoding="utf-8"?>
<svg xmlns="http://www.w3.org/2000/svg" height="45" width="75" fill="none" stroke-width="1" stroke="black">

    <path
        d="m7 20h15c0-9.6 8.4-9.6 8.4 0 0-9.6 8.4-9.6 8.4 0 0-9.6 8.4-9.6 8.4 0 0-9.6 8.4-9.6 8.4 0 0-9.6 8.4-9.6 8.4 0h6"
        stroke="black" />
    <circle cx="6" cy="20" r="1" fill="none" />
    <circle cx="71" cy="20" r="1" fill="none" />


    <path d="M10 17 15 20 10 23" fill="red" stroke="red" />
    <text x="12" y="14" font-size="10" fill="red" stroke="red" stroke-width="0.25">i</text>
    <text x="16" y="16" font-size="5" fill="red" stroke="red" stroke-width="0.25">e</text>

    <text x="35" y="10" font-size="10" fill="black" stroke="black" stroke-width="0.25">L</text>
    <text x="42" y="11" font-size="5" fill="black" stroke="black" stroke-width="0.25">e</text>
    <path d="m 10,35h50" stroke="black" />
    <path d="m15 32-5 3 5 3" fill="black" stroke="black" />
    <text x="35" y="42.5" font-size="10" fill="black" stroke="black" stroke-width="0.25">u</text>

</svg>