<?xml version="1.0" encoding="utf-8"?>
<svg xmlns="http://www.w3.org/2000/svg" height="70" width="130" fill="none" stroke-width="1.5" stroke="black">
    <path d="m15 30h20c0-16 14-16 14 0 0-16 14-16 14 0 0-16 14-16 14 0 0-16 14-16 14 0 0-16 14-16 14 0h20"
        stroke="black" />
    <text x="65" y="15" font-size="10" fill="black" stroke="black" stroke-width="0.25">L</text>
    <text x="72" y="15" font-size="5" fill="black" stroke="black" stroke-width="0.25">e</text>
    <circle cx="14" cy="30" r="1" stroke="green" fill="green" />
    <circle cx="126" cy="30" r="1" stroke="green" fill="green" />
    <text x="10" y="40" font-size="10" fill="green" stroke="green" stroke-width="0.25">A</text>
    <text x="120" y="40" font-size="10" fill="green" stroke="green" stroke-width="0.25">B</text>


    <path d="m20 27 5 3-5 3" fill="red" stroke="red" />
    <text x="18" y="22" font-size="10" fill="red" stroke="red" stroke-width="0.25">i</text>
    <text x="21" y="24" font-size="5" fill="red" stroke="red" stroke-width="0.25">A</text>
    <text x="25" y="24" font-size="5" fill="red" stroke="red" stroke-width="0.25">B</text>

    <path d="m20,50h90" stroke="green" />
    <path d="m27.5 45.5-7.5 4.5 7.5 4.5" fill="green" stroke="green" />
    <text x="65" y="62" font-size="10" fill="green" stroke="green" stroke-width="0.25">U</text>
    <text x="73" y="64" font-size="5" fill="green" stroke="green" stroke-width="0.25">e</text>
</svg>