<?xml version="1.0" encoding="UTF-8"?>
<svg xmlns="http://www.w3.org/2000/svg" viewBox="0 0 800 350" width="800" height="350">
  <style>
.obj,.img{stroke:#000;stroke-width:3}
.green{stroke:#1ca64c;stroke-width:3;fill:none}
.blue{stroke:#2d6cdf;stroke-width:3;fill:none}
.red{stroke:#d63b3b;stroke-width:3;fill:none}
text{font-family:Arial,sans-serif;font-size:18px}
</style>
  <defs>
    <marker id="arrow" markerWidth="10" markerHeight="10" refX="8" refY="3" orient="auto">
      <path d="M0,0 L8,3 L0,6Z" fill="currentColor" />
    </marker>
  </defs>
  <line stroke="#444" stroke-width="2" x1="40" y1="180" x2="760" y2="180" />
  <g>
    <path d="M394 77L400 61L406 77Z" fill="#0080ff" />
    <path d="M406 289L400 305L394 289Z" fill="#0080ff" />
    <line stroke="#0080ff" stroke-width="4" class="lens" x1="400" y1="70" x2="400" y2="290" />
  </g>
  <text x="410" y="170">O</text>
  <text x="250" y="205">F</text>
  <text x="545" y="175">F'</text>
  <line class="obj" x1="120" y1="180" x2="120" y2="100" />
  <text x="105" y="205">A</text>
  <text x="105" y="85">B</text>
  <line class="img" x1="680" y1="180" x2="680" y2="260" />
  <text x="665" y="175">A'</text>
  <text x="670" y="285">B'</text>
  <line class="green" x1="120" y1="100" x2="680" y2="260" marker-end="url(#arrow)" />
  <polyline class="blue" points="120,100 400,100 680,260" marker-end="url(#arrow)" />
  <polyline class="red" points="120,100 400,260 680,260" marker-end="url(#arrow)" />
</svg>