<?xml version="1.0" encoding="UTF-8"?>
<svg xmlns="http://www.w3.org/2000/svg" viewBox="0 0 800 350" width="800" height="350">
  <style>
.axis{stroke:#444;stroke-width:2}
.lens{stroke:#0080ff;stroke-width:4}
.img{stroke:#000;stroke-width:3}
.ray{stroke:#d63b3b;stroke-width:3;fill:none}
text{font-family:Arial,sans-serif;font-size:18px}
</style>
  <defs>
    <marker id="arrow" markerWidth="10" markerHeight="10" refX="8" refY="3" orient="auto">
      <path d="M0,0 L8,3 L0,6Z" fill="currentColor" />
    </marker>
  </defs>
  <line class="axis" x1="40" y1="180" x2="760" y2="180" />
  <g>
    <path d="M394 77L400 61L406 77Z" fill="#0080ff" />
    <path d="M406 289L400 305L394 289Z" fill="#0080ff" />
    <line stroke="#0080ff" stroke-width="4" class="lens" x1="400" y1="70" x2="400" y2="290" />
  </g>
  <text x="410" y="220">O</text>
  <text x="250" y="225">F</text>
  <text x="545" y="165">F'</text>
  <line class="img" x1="650" y1="180" x2="650" y2="260" />
  <text x="655" y="175">A' = F'</text>
  <text x="655" y="275">B'</text>
  <line class="ray" x1="40" y1="60" x2="400" y2="140" />
  <line class="ray" x1="40" y1="80" x2="400" y2="160" />
  <line class="ray" x1="40" y1="100" x2="400" y2="180" />
  <line class="ray" x1="400" y1="140" x2="650" y2="260" />
  <line class="ray" x1="400" y1="160" x2="650" y2="260" />
  <line class="ray" x1="400" y1="180" x2="650" y2="260" />

  <line class="ray" x1="40" y1="160" x2="400" y2="160" />
  <line class="ray" x1="40" y1="180" x2="400" y2="180" />
  <line class="ray" x1="40" y1="200" x2="400" y2="200" />
  <line class="ray" x1="400" y1="160" x2="650" y2="180" />
  <line class="ray" x1="400" y1="180" x2="650" y2="180" />
  <line class="ray" x1="400" y1="200" x2="650" y2="180" />


  <text x="100" y="65">B at infinity</text>
  <text x="40" y="245">A at infinity on the optical axis</text>
</svg>