<?xml version="1.0" encoding="UTF-8"?>
<svg xmlns="http://www.w3.org/2000/svg" width="1200" height="760" viewBox="0 0 1200 760">
    <g transform="translate(50,0)">
        <text x="320" y="20" text-anchor="middle">TCP Header Format</text>
    </g>
    <g transform="translate(50,70)">
        <rect x="0" y="0" width="320" height="48" fill="none" stroke="black" />
        <rect x="320" y="0" width="320" height="48" fill="none" stroke="black" />
        <text x="160" y="30" text-anchor="middle">Source Port</text>
        <text x="490" y="30" text-anchor="middle">Destination Port</text>
    </g>
    <g transform="translate(50,118)">
        <rect x="0" y="0" width="640" height="48" fill="none" stroke="black" />
        <text x="320" y="30" text-anchor="middle">Sequence Number</text>
    </g>
    <g transform="translate(50,166)">
        <rect x="0" y="0" width="640" height="48" fill="none" stroke="black" />
        <text x="320" y="30" text-anchor="middle">
            Acknowledgement Number (meaningful when ACK bit set)
        </text>
    </g>
    <g transform="translate(50,214)">
        <rect x="0" y="0" width="80" height="48" fill="none" stroke="black" />
        <rect x="80" y="0" width="80" height="48" fill="none" stroke="black" />
        <rect x="160" y="0" width="20" height="48" fill="none" stroke="black" />
        <rect x="180" y="0" width="20" height="48" fill="none" stroke="black" />
        <rect x="200" y="0" width="20" height="48" fill="none" stroke="black" />
        <rect x="220" y="0" width="20" height="48" fill="none" stroke="black" />
        <rect x="240" y="0" width="20" height="48" fill="none" stroke="black" />
        <rect x="260" y="0" width="20" height="48" fill="none" stroke="black" />
        <rect x="280" y="0" width="20" height="48" fill="none" stroke="black" />
        <rect x="300" y="0" width="20" height="48" fill="none" stroke="black" />
        <rect x="320" y="0" width="320" height="48" fill="none" stroke="black" />
        <text x="40" y="30" text-anchor="middle">Data Offset</text>
        <text x="120" y="30" text-anchor="middle">Reserved</text>
        <text x="170" y="18" text-anchor="middle">C</text>
        <text x="170" y="30" text-anchor="middle">W</text>
        <text x="170" y="42" text-anchor="middle">R</text>
        <text x="190" y="18" text-anchor="middle">E</text>
        <text x="190" y="30" text-anchor="middle">C</text>
        <text x="190" y="42" text-anchor="middle">E</text>
        <text x="210" y="18" text-anchor="middle">U</text>
        <text x="210" y="30" text-anchor="middle">R</text>
        <text x="210" y="42" text-anchor="middle">G</text>
        <text x="230" y="18" text-anchor="middle">A</text>
        <text x="230" y="30" text-anchor="middle">C</text>
        <text x="230" y="42" text-anchor="middle">K</text>
        <text x="250" y="18" text-anchor="middle">P</text>
        <text x="250" y="30" text-anchor="middle">S</text>
        <text x="250" y="42" text-anchor="middle">H</text>
        <text x="270" y="18" text-anchor="middle">R</text>
        <text x="270" y="30" text-anchor="middle">S</text>
        <text x="270" y="42" text-anchor="middle">T</text>
        <text x="290" y="18" text-anchor="middle">S</text>
        <text x="290" y="30" text-anchor="middle">Y</text>
        <text x="290" y="42" text-anchor="middle">N</text>
        <text x="310" y="18" text-anchor="middle">F</text>
        <text x="310" y="30" text-anchor="middle">I</text>
        <text x="310" y="42" text-anchor="middle">N</text>
        <text x="480" y="30" text-anchor="middle">Window</text>
    </g>
    <g transform="translate(50,262)">
        <rect x="0" y="0" width="320" height="48" fill="none" stroke="black" />
        <rect x="320" y="0" width="320" height="48" fill="none" stroke="black" />
        <text x="160" y="30" text-anchor="middle">Checksum</text>
        <text x="480" y="30" text-anchor="middle">
            Urgent Pointer (meaningful when URG bit set)
        </text>
    </g>
    <g transform="translate(50,310)">
        <rect x="0" y="0" width="640" height="96" fill="none" stroke="black" />
        <text x="320" y="36" text-anchor="middle">
            Options (if present, Data Offset &gt; 5)
        </text>
        <text x="320" y="62" text-anchor="middle">
            Padded with zeros to a multiple of 32 bits
        </text>
    </g>
    <g transform="translate(50,406)">
        <rect x="0" y="0" width="640" height="200" fill="none" stroke="black" />
        <text x="320" y="110" text-anchor="middle">Data</text>
    </g>

</svg>