<?xml version="1.0" encoding="UTF-8" standalone="no"?>
<svg xmlns:rdf="http://www.w3.org/1999/02/22-rdf-syntax-ns#" xmlns="http://www.w3.org/2000/svg"
  xmlns:cc="http://creativecommons.org/ns#" xmlns:dc="http://purl.org/dc/elements/1.1/"
  xmlns:svg="http://www.w3.org/2000/svg" xmlns:xlink="http://www.w3.org/1999/xlink" id="Layer_1" xml:space="preserve"
  viewBox="0 0 370 370" version="1.0" y="0px" x="0px">
  <g id="layer1_1_" transform="translate(-235 -310)">
    <path id="path240" stroke-linejoin="round"
      d="m486.41 628.2c-0.883-5.231-18.014-19.403-17.154-24.799 0.857-5.394 14.202 6.908 13.431 1.638-0.774-5.271-4.727-16.051-14.752-19.654-7.009-2.518-21.022 7.788-28.767 14.326-6.602-4.133-22.821-2.045-31.675-0.368-6.657-5.965-23.517-19.486-31.434-16.642-10.025 3.603-13.978 14.383-14.752 19.654-0.771 5.271 12.573-7.031 13.431-1.638 0.859 5.395-16.271 19.567-17.154 24.799-1.037 6.151 10.909-5.133 18.7-8.799 7.792-3.667-2.808 19.607-4.817 27.02-0.968 3.57 7.792-3.665 13.239-11.136 4.58-6.28 7.932-15.86 11.87-19.943-2.785 9.475-1.652 25.238 0.488 25.238 3.603 0 8.64-13.126 10.988-21.083 1.36 5.511-0.51 15.451 0.315 23.171 0.982 9.193 4.951 19.84 5.897 16.264 1.966-7.424 4.423-32.881 9.339-25.809 4.914 7.07 9.617 22.816 11.795 16.971 1.852-4.973-5.898-25.811-2.457-30.053 0.724-0.893 1.534-0.823 2.381-0.216 2.314 9.914 8.693 30.505 10.586 12.497 0.117-1.118-0.129-11.354-0.348-15.756 4.799 2.529 8.445 14.16 13.728 21.402 5.447 7.471 14.207 14.706 13.239 11.136-2.01-7.412-12.61-30.687-4.817-27.02 7.77 3.67 19.72 14.96 18.68 8.8z"
      stroke="#000000" stroke-linecap="round" stroke-width="4" fill="#784421" />
    <g id="g242">
      <path id="path3155_1_" stroke-linejoin="round"
        d="m417.41 453.44c-30.128 0.61-50.931 11.653-63.624 28.75-24.064-2.588-42.063 30.625-42.063 30.625s16.892 2.446 30.063-5.469c-2.398 8.712-3.563 18.106-3.563 27.906 0 45.175 56.125 81.844 81.843 81.844 26.717 0 81.844-36.669 81.844-81.844 0-9.8-1.015-18.652-3.563-27.906 13.172 7.915 30.031 5.469 30.031 5.469s-17.971-33.204-42.031-30.625c-13.061-17.595-34.707-28.75-66.281-28.75-0.9-0.01-1.78-0.03-2.66-0.01z"
        stroke="#000000" stroke-linecap="round" stroke-width="4" fill="#502D16" />
      <path id="path3231_1_"
        d="m498.63 508.44l-1.875 2.656c0.25 3.076 0.344 6.203 0.344 9.375 0 45.175-55.127 81.844-81.844 81.844-20.705 0-61.095-23.756-76.062-56.594 7.616 40.246 57.171 71.375 80.874 71.375 26.717 0 81.844-36.669 81.844-81.844 0-9.4-1.07-18.42-3.28-26.82z"
        fill-opacity=".3137" />
    </g>
    <path id="path3203_2_" stroke-linejoin="round"
      d="m442.38 459.55c8.542-6.801 6.1-29.266 3.661-33.406-2.441-4.139-6.082 13.352-10.353 9.803-4.272-3.549 1.278-15.978-1.021-20.137-2.704-4.89-7.542 10.28-13.642 16.195-6.104 5.914-8.494-15.489-11.595-18.589-5.758-2.991-3.258 13.192-10.152 17.193-3.992 2.316-9.371-8.604-11.201-6.533-1.83 2.068-7.904 12.299 5.49 35.771"
      stroke="#000000" stroke-linecap="round" stroke-width="4.0761" fill="#502D16" />

    <g id="g257">
      <g id="g259">
        <g id="g261">
          <g id="g263">
            <path id="path3159_1_" stroke-linejoin="round"
              d="m469.18 523.26c0.004 12.519-10.145 22.669-22.662 22.669-12.52 0-22.667-10.15-22.664-22.669-0.003-12.52 10.145-22.67 22.664-22.67 12.51 0.01 22.66 10.15 22.66 22.67z"
              stroke="#000000" stroke-linecap="round" stroke-width="4" fill="#FFFFFF" />
            <path id="path3161_1_"
              d="m449.03 527.26c0.001 4.174-3.382 7.557-7.554 7.557-4.174 0-7.557-3.383-7.555-7.557-0.002-4.173 3.381-7.556 7.555-7.556 4.17 0.01 7.55 3.39 7.55 7.56z" />
          </g>
          <g id="g267">
            <path id="path3157_1_" stroke-linejoin="round"
              d="m416.44 523.26c0.003 12.519-10.145 22.669-22.664 22.669-12.518 0-22.666-10.15-22.662-22.669-0.004-12.52 10.144-22.67 22.662-22.67 12.52 0.01 22.67 10.15 22.66 22.67z"
              stroke="#000000" stroke-linecap="round" stroke-width="4" fill="#FFFFFF" />
            <path id="path3163_1_"
              d="m407 527.26c0.002 4.174-3.381 7.557-7.554 7.557s-7.555-3.383-7.554-7.557c-0.001-4.173 3.381-7.556 7.554-7.556s7.55 3.39 7.55 7.56z" />
          </g>
        </g>
        <g id="g271">
          <path id="path2398_1_"
            d="m436.67 587.9c-2.293 3.974-6.5 5.839-9.396 4.167-2.896-1.673-3.385-6.249-1.09-10.222 2.292-3.973 6.5-5.838 9.396-4.166s3.38 6.24 1.09 10.22z" />
          <path id="path2412_1_"
            d="m403.93 587.9c2.292 3.974 6.5 5.839 9.396 4.167 2.896-1.673 3.385-6.249 1.09-10.222-2.293-3.973-6.5-5.838-9.396-4.166s-3.38 6.24-1.09 10.22z" />
        </g>
      </g>
    </g>
    <g id="g275" stroke-linejoin="round" stroke="#000000" stroke-linecap="round" stroke-width="4" fill="#424242">
      <path id="path277"
        d="m411.73 464.54c-11.537-31.025-49.657-16.323-74.68-8.223-14.393 2.983-33.918-5.833-35.747-7.663 0 0-1.196-3.99-3.622-9.956-7.278-17.9-25.627-53.582-55.949-52.612 0 0 44.821 21.371 41.445 77.496 0 0 31.876 28.322 101.24 18.644 11.56-1.62 29.79-10.12 27.31-17.69z" />
      <path id="path279"
        d="m429.17 464.54c11.536-31.025 49.65-16.323 74.67-8.223 14.391 2.983 33.913-5.833 35.742-7.663 0 0 1.196-3.99 3.621-9.956 7.278-17.9 25.624-53.582 55.943-52.612 0 0-44.816 21.371-41.44 77.496 0 0-31.872 28.322-101.23 18.644-11.55-1.62-29.78-10.12-27.3-17.69z" />
    </g>
  </g>
  <metadata>
    <rdf:RDF>
      <cc:Work>
        <dc:format>image/svg+xml</dc:format>
        <dc:type rdf:resource="http://purl.org/dc/dcmitype/StillImage" />
        <cc:license rdf:resource="http://creativecommons.org/licenses/publicdomain/" />
        <dc:title>Yakb Logo - modified from Cartoon Yak</dc:title>
        <dc:date>2012-05-10T12:13:39</dc:date>
        <dc:description>Yakb Logo taken from clipart - Cartoon Yak in the style of lemmling.</dc:description>
        <dc:source>https://openclipart.org/detail/169962/cartoon-yak-by-studiofibonacci</dc:source>
      </cc:Work>
      <cc:License rdf:about="http://creativecommons.org/licenses/publicdomain/">
        <cc:permits rdf:resource="http://creativecommons.org/ns#Reproduction" />
        <cc:permits rdf:resource="http://creativecommons.org/ns#Distribution" />
        <cc:permits rdf:resource="http://creativecommons.org/ns#DerivativeWorks" />
      </cc:License>
    </rdf:RDF>
  </metadata>
</svg>