<svg xmlns="http://www.w3.org/2000/svg" width="275" height="155" stroke-linecap="round" fill="none" stroke="black">
    <!--resistor r1-->
    <path d="M40 40v-30" stroke="black" />
    <text x="20" y="80" font-size="10" fill="black" stroke="black" stroke-width="0.25">R</text>
    <text x="28" y="82" font-size="5" fill="black" stroke="black" stroke-width="0.35">1</text>
    <path d="m40 100v-10.5l7-3.5-14-7 14-7-14-7 14-7-14-7 7-3.5v-10.5" />

    <!--resistor r-->
    <path d="M40 10h100" stroke="black" />
    <text x="120" y="80" font-size="10" fill="black" stroke="black" stroke-width="0.25">R</text>
    <path d="m140 100v-10.5l7-3.5-14-7 14-7-14-7 14-7-14-7 7-3.5v-10.5" />
    <path d="m140 10v30" stroke="black" />
    <path d="m140 100v42" stroke="black" />

    <!--source e1-->
    <path d="m40 100v10.5m21 0h-42m31.5 5.25h-21m10.5 0v26.25m18.75-42h-8.25m3.75 3.75v-8.25" stroke="black" />
    <text x="20" y="130" font-size="10" fill="black" stroke="black" stroke-width="0.25">E</text>
    <text x="28" y="135" font-size="5" fill="black" stroke="black" stroke-width="0.35">1</text>

    <!--resistor r2-->
    <path d="m140 10h100v30" stroke="black" />
    <text x="220" y="80" font-size="10" fill="black" stroke="black" stroke-width="0.25">R</text>
    <text x="228" y="82" font-size="5" fill="black" stroke="black" stroke-width="0.35">2</text>
    <path d="m240 100v-10.5l7-3.5-14-7 14-7-14-7 14-7-14-7 7-3.5v-10.5" />

    <!--source e2-->
    <path d="m240 100v10.5m21 0h-42m31.5 5.25h-21m10.5 0v26.25m18.75-42h-8.25m3.75 3.75v-8.25" stroke="black" />
    <text x="220" y="130" font-size="10" fill="black" stroke="black" stroke-width="0.25">E</text>
    <text x="228" y="135" font-size="5" fill="black" stroke="black" stroke-width="0.35">2</text>
    <path d="M40 142h200" stroke="black" />


    <!--current-->
    <path d="m143 30-3 5-3-5z" fill="red" stroke="red" />
    <text x="130" y="42" font-size="10" fill="red" stroke="red" stroke-width="0.25">I</text>



    <!--current I1-->
    <path d="m80 7 5 3-5 3z" fill="red" stroke="red" />
    <text x="85" y="25" font-size="10" fill="red" stroke="red" stroke-width="0.25">I</text>
    <text x="90" y="28" font-size="5" fill="red" stroke="red" stroke-width="0.25">1</text>

    <!--current I2-->
    <path d="m190 13-5-3 5-3z" fill="red" stroke="red" />
    <text x="185" y="25" font-size="10" fill="red" stroke="red" stroke-width="0.25">I</text>
    <text x="190" y="28" font-size="5" fill="red" stroke="red" stroke-width="0.25">2</text>

    <!--node 1-->
    <circle cx="140" cy="10" r="2" fill="blue" />
    <text x="142" y="20" font-size="10" fill="blue" stroke="blue" stroke-width="0.25">N</text>
    <text x="150" y="22" font-size="5" fill="blue" stroke="blue" stroke-width="0.25">1</text>

    <!--node 2-->
    <circle cx="140" cy="142" r="2" fill="blue" />
    <text x="142" y="138" font-size="10" fill="blue" stroke="blue" stroke-width="0.25">N</text>
    <text x="150" y="140" font-size="5" fill="blue" stroke="blue" stroke-width="0.25">2</text>

    <!--branch 1-->
    <path d="m70 110v-60h45v60h-30" stroke="green" />
    <path d="m90 114-7.5-4.5 7.5-4.5z" fill="green" stroke="green" />
    <text x="87" y="83" font-size="10" fill="green" stroke="green" stroke-width="0.25">B</text>
    <text x="95" y="86" font-size="5" fill="green" stroke="green" stroke-width="0.35">1</text>

    <!--branch 2-->
    <path d="m195 110h-30v-60h45v60" stroke="green" />
    <path d="m190 106 7.5 4.5-7.5 4.5z" fill="green" stroke="green" />
    <text x="182" y="83" font-size="10" fill="green" stroke="green" stroke-width="0.25">B</text>
    <text x="190" y="86" font-size="5" fill="green" stroke="green" stroke-width="0.35">2</text>


</svg>