<svg xmlns="http://www.w3.org/2000/svg" width="950" height="260">
  <!-- left labels -->
  <g font-size="20px" fill="#000">
    <text x="10" y="45">(a)</text>
    <text x="10" y="165">(b)</text>
  </g>

  <!-- baselines -->
  <line x1="60" y1="50" x2="900" y2="50" stroke="#444" stroke-width="2" />
  <path d="m900 44 0 12 12-6-12-6z" fill="#444" stroke-width="2" />
  <line x1="60" y1="170" x2="900" y2="170" stroke="#444" stroke-width="2" />
  <path d="m900 164 0 12 12-6-12-6z" fill="#444" stroke-width="2" />

  <!-- segment parameters -->
  <g stroke="#444" stroke-width="1" stroke-dasharray="6 6">
    <line x1="60" y1="0" x2="60" y2="260" stroke="#444" />
    <line x1="150" y1="0" x2="150" y2="260" stroke="#444" />
    <line x1="240" y1="0" x2="240" y2="260" stroke="#444" />
    <line x1="330" y1="0" x2="330" y2="260" stroke="#444" />
    <line x1="420" y1="0" x2="420" y2="260" stroke="#444" />
    <line x1="510" y1="0" x2="510" y2="260" stroke="#444" />
    <line x1="600" y1="0" x2="600" y2="260" stroke="#444" />
    <line x1="690" y1="0" x2="690" y2="260" stroke="#444" />
    <line x1="780" y1="0" x2="780" y2="260" stroke="#444" />
    <line x1="870" y1="0" x2="870" y2="260" stroke="#444" />
  </g>
  <g fill="none" stroke="#000" stroke-width="4" rx="4" ry="4">
    <rect x="66" y="10" width="78" height="40" />
    <rect x="336" y="10" width="78" height="40" />
    <rect x="426" y="10" width="78" height="40" />
    <rect x="606" y="10" width="78" height="40" />
    <rect x="786" y="10" width="78" height="40" />
  </g>
  <g fill="#000" font-size="18px">
    <text x="97.0" y="36">1</text>
    <text x="187.0" y="36">0</text>
    <text x="277.0" y="36">0</text>
    <text x="367.0" y="36">1</text>
    <text x="457.0" y="36">1</text>
    <text x="547.0" y="36">0</text>
    <text x="637.0" y="36">1</text>
    <text x="727.0" y="36">0</text>
    <text x="817.0" y="36">1</text>
  </g>
  <g fill="none" stroke="#000" stroke-width="3">
    <path
      d="M 66.00,170.00 67.30,161.05 68.60,153.65 69.90,149.08 71.20,148.12 72.50,150.95 73.80,157.07 75.10,165.43 76.40,174.57 77.70,182.93 79.00,189.05 80.30,191.88 81.60,190.92 82.90,186.35 84.20,178.95 85.50,170.00 86.80,161.05 88.10,153.65 89.40,149.08 90.70,148.12 92.00,150.95 93.30,157.07 94.60,165.43 95.90,174.57 97.20,182.93 98.50,189.05 99.80,191.88 101.10,190.92 102.40,186.35 103.70,178.95 105.00,170.00 106.30,161.05 107.60,153.65 108.90,149.08 110.20,148.12 111.50,150.95 112.80,157.07 114.10,165.43 115.40,174.57 116.70,182.93 118.00,189.05 119.30,191.88 120.60,190.92 121.90,186.35 123.20,178.95 124.50,170.00 125.80,161.05 127.10,153.65 128.40,149.08 129.70,148.12 131.00,150.95 132.30,157.07 133.60,165.43 134.90,174.57 136.20,182.93 137.50,189.05 138.80,191.88 140.10,190.92 141.40,186.35 142.70,178.95 144.00,170.00" />
    <line x1="142" y1="170" x2="338" y2="170" stroke="#000" stroke-width="3" />
    <path
      d="M 336.00,170.00 337.30,161.05 338.60,153.65 339.90,149.08 341.20,148.12 342.50,150.95 343.80,157.07 345.10,165.43 346.40,174.57 347.70,182.93 349.00,189.05 350.30,191.88 351.60,190.92 352.90,186.35 354.20,178.95 355.50,170.00 356.80,161.05 358.10,153.65 359.40,149.08 360.70,148.12 362.00,150.95 363.30,157.07 364.60,165.43 365.90,174.57 367.20,182.93 368.50,189.05 369.80,191.88 371.10,190.92 372.40,186.35 373.70,178.95 375.00,170.00 376.30,161.05 377.60,153.65 378.90,149.08 380.20,148.12 381.50,150.95 382.80,157.07 384.10,165.43 385.40,174.57 386.70,182.93 388.00,189.05 389.30,191.88 390.60,190.92 391.90,186.35 393.20,178.95 394.50,170.00 395.80,161.05 397.10,153.65 398.40,149.08 399.70,148.12 401.00,150.95 402.30,157.07 403.60,165.43 404.90,174.57 406.20,182.93 407.50,189.05 408.80,191.88 410.10,190.92 411.40,186.35 412.70,178.95 414.00,170.00" />
    <path
      d="M 426.00,170.00 427.30,161.05 428.60,153.65 429.90,149.08 431.20,148.12 432.50,150.95 433.80,157.07 435.10,165.43 436.40,174.57 437.70,182.93 439.00,189.05 440.30,191.88 441.60,190.92 442.90,186.35 444.20,178.95 445.50,170.00 446.80,161.05 448.10,153.65 449.40,149.08 450.70,148.12 452.00,150.95 453.30,157.07 454.60,165.43 455.90,174.57 457.20,182.93 458.50,189.05 459.80,191.88 461.10,190.92 462.40,186.35 463.70,178.95 465.00,170.00 466.30,161.05 467.60,153.65 468.90,149.08 470.20,148.12 471.50,150.95 472.80,157.07 474.10,165.43 475.40,174.57 476.70,182.93 478.00,189.05 479.30,191.88 480.60,190.92 481.90,186.35 483.20,178.95 484.50,170.00 485.80,161.05 487.10,153.65 488.40,149.08 489.70,148.12 491.00,150.95 492.30,157.07 493.60,165.43 494.90,174.57 496.20,182.93 497.50,189.05 498.80,191.88 500.10,190.92 501.40,186.35 502.70,178.95 504.00,170.00" />
    <line x1="503" y1="170" x2="607" y2="170" stroke="#000" stroke-width="3" />
    <path
      d="M 606.00,170.00 607.30,161.05 608.60,153.65 609.90,149.08 611.20,148.12 612.50,150.95 613.80,157.07 615.10,165.43 616.40,174.57 617.70,182.93 619.00,189.05 620.30,191.88 621.60,190.92 622.90,186.35 624.20,178.95 625.50,170.00 626.80,161.05 628.10,153.65 629.40,149.08 630.70,148.12 632.00,150.95 633.30,157.07 634.60,165.43 635.90,174.57 637.20,182.93 638.50,189.05 639.80,191.88 641.10,190.92 642.40,186.35 643.70,178.95 645.00,170.00 646.30,161.05 647.60,153.65 648.90,149.08 650.20,148.12 651.50,150.95 652.80,157.07 654.10,165.43 655.40,174.57 656.70,182.93 658.00,189.05 659.30,191.88 660.60,190.92 661.90,186.35 663.20,178.95 664.50,170.00 665.80,161.05 667.10,153.65 668.40,149.08 669.70,148.12 671.00,150.95 672.30,157.07 673.60,165.43 674.90,174.57 676.20,182.93 677.50,189.05 678.80,191.88 680.10,190.92 681.40,186.35 682.70,178.95 684.00,170.00" />
    <line x1="683" y1="170" x2="787" y2="170" stroke="#000" stroke-width="3" />
    <path
      d="M 786.00,170.00 787.30,161.05 788.60,153.65 789.90,149.08 791.20,148.12 792.50,150.95 793.80,157.07 795.10,165.43 796.40,174.57 797.70,182.93 799.00,189.05 800.30,191.88 801.60,190.92 802.90,186.35 804.20,178.95 805.50,170.00 806.80,161.05 808.10,153.65 809.40,149.08 810.70,148.12 812.00,150.95 813.30,157.07 814.60,165.43 815.90,174.57 817.20,182.93 818.50,189.05 819.80,191.88 821.10,190.92 822.40,186.35 823.70,178.95 825.00,170.00 826.30,161.05 827.60,153.65 828.90,149.08 830.20,148.12 831.50,150.95 832.80,157.07 834.10,165.43 835.40,174.57 836.70,182.93 838.00,189.05 839.30,191.88 840.60,190.92 841.90,186.35 843.20,178.95 844.50,170.00 845.80,161.05 847.10,153.65 848.40,149.08 849.70,148.12 851.00,150.95 852.30,157.07 853.60,165.43 854.90,174.57 856.20,182.93 857.50,189.05 858.80,191.88 860.10,190.92 861.40,186.35 862.70,178.95 864.00,170.00" />
  </g>
</svg>